# xmcd
#
# Track frame offsets:
#	150
#	7937
#	19873
#	29424
#	38158
#	50096
#	61809
#	74269
#	87557
#	98547
#	107434
#	123530
#	135846
#	162542
#	176790
#	198922
#	219592
#	237290
#	252288
#	276660
#	298961
#
# Disc length: 4237 seconds
#
# Revision: 0
# Processed by: cddbd v1.4PL0 Copyright (c) Steve Scherf et al.
# Submitted via: dBpowerAMP V4.0
#
DISCID=34108b15
DTITLE=어링 - 어린이,웨이브
DYEAR=2003
DGENRE=Rhythmic Soul
TTITLE0=dj
TTITLE1=어2
TTITLE2=어3
TTITLE3=서
TTITLE4=엉
TTITLE5=ㄹ
TTITLE6=ㅏ랄
TTITLE7=추ㅜㅡㅇ
TTITLE8=다ㅏㅇ
TTITLE9=오
TTITLE10=앙
TTITLE11=ㅏㄹ히
TTITLE12=ㄹㄹ
TTITLE13=ㅠ휴
TTITLE14=ㅍㅍ
TTITLE15=ㅏㅓㅓ
TTITLE16=5ㅅㅅ
TTITLE17=ㅓㅓ
TTITLE18=ㅎㅎ
TTITLE19=
TTITLE20=ㅕㅕ
EXTD=어린이, 웨이브\n
EXTT0=
EXTT1=
EXTT2=
EXTT3=
EXTT4=
EXTT5=
EXTT6=
EXTT7=
EXTT8=
EXTT9=
EXTT10=
EXTT11=
EXTT12=
EXTT13=
EXTT14=
EXTT15=
EXTT16=
EXTT17=
EXTT18=
EXTT19=
EXTT20=
PLAYORDER=
